HIERARCHY
ROOT Hips
{
	OFFSET	0	0	0
	CHANNELS 6  Xposition Yposition Zposition Xrotation Yrotation Zrotation
	JOINT Spine
	{
		OFFSET	0	6.22639	1.25326
		CHANNELS 3  Xrotation Yrotation Zrotation
		JOINT Spine1
		{
			OFFSET	0	10.6877	-1.90851
			CHANNELS 3  Xrotation Yrotation Zrotation
			JOINT Spine2
			{
				OFFSET	0	8.10164	0.868374
				CHANNELS 3  Xrotation Yrotation Zrotation
				JOINT Spine3
				{
					OFFSET	0	9.69525	2.88186
					CHANNELS 3  Xrotation Yrotation Zrotation
					JOINT Spine4
					{
						OFFSET	0	14.352	-1.46956
						CHANNELS 3  Xrotation Yrotation Zrotation
						JOINT Neck
						{
							OFFSET	0	6.85157	-4.79991
							CHANNELS 3  Xrotation Yrotation Zrotation
							JOINT Head
							{
								OFFSET	0	8.2257	-2.46198
								CHANNELS 3  Xrotation Yrotation Zrotation
								End Site
								{
									OFFSET	0	17.1575	-0.830203
								}
							}
						}
					}
					JOINT LeftShoulder
					{
						OFFSET	-4.12239	17.4438	-8.22569
						CHANNELS 3  Xrotation Yrotation Zrotation
						JOINT LeftArm
						{
							OFFSET	-8.97544	-2.46198	3.15861
							CHANNELS 3  Xrotation Yrotation Zrotation
							JOINT LeftForeArm
							{
								OFFSET	-28.8645	-1.31743	2.06032
								CHANNELS 3  Xrotation Yrotation Zrotation
								JOINT LeftHand
								{
									OFFSET	-23.6955	-1.63749	1.69136
									CHANNELS 3  Xrotation Yrotation Zrotation
									End Site
									{
										OFFSET	-8.64768	-0.597604	0.617222
									}
								}
							}
						}
					}
					JOINT RightShoulder
					{
						OFFSET	4.12239	17.4438	-8.22569
						CHANNELS 3  Xrotation Yrotation Zrotation
						JOINT RightArm
						{
							OFFSET	8.97544	-2.46198	3.15861
							CHANNELS 3  Xrotation Yrotation Zrotation
							JOINT RightForeArm
							{
								OFFSET	28.8645	-1.31743	2.06032
								CHANNELS 3  Xrotation Yrotation Zrotation
								JOINT RightHand
								{
									OFFSET	23.6955	-1.63749	1.69136
									CHANNELS 3  Xrotation Yrotation Zrotation
									End Site
									{
										OFFSET	8.64768	-0.597604	0.617222
									}
								}
							}
						}
					}
				}
			}
		}
	}
	JOINT LeftUpLeg
	{
		OFFSET	-8.47813	-3.1132	-0.626629
		CHANNELS 3  Xrotation Yrotation Zrotation
		JOINT LeftLeg
		{
			OFFSET	-1.88069	-36.8514	-0.576069
			CHANNELS 3  Xrotation Yrotation Zrotation
			JOINT LeftFoot
			{
				OFFSET	-1.83866	-33.8924	2.91475
				CHANNELS 3  Xrotation Yrotation Zrotation
				JOINT LeftToeBase
				{
					OFFSET	0	-4.18359	-11.1116
					CHANNELS 3  Xrotation Yrotation Zrotation
					End Site
					{
						OFFSET	0	-1.67344	-6.69374
					}
				}
			}
		}
	}
	JOINT RightUpLeg
	{
		OFFSET	8.47813	-3.1132	-0.626629
		CHANNELS 3  Xrotation Yrotation Zrotation
		JOINT RightLeg
		{
			OFFSET	1.88069	-36.8514	-0.576069
			CHANNELS 3  Xrotation Yrotation Zrotation
			JOINT RightFoot
			{
				OFFSET	1.83866	-33.8924	2.91475
				CHANNELS 3  Xrotation Yrotation Zrotation
				JOINT RightToeBase
				{
					OFFSET	0	-4.18359	-11.1116
					CHANNELS 3  Xrotation Yrotation Zrotation
					End Site
					{
						OFFSET	0	-1.67344	-6.69374
					}
				}
			}
		}
	}
}
MOTION
Frames: 19
Frame Time: 0.020408
 -56.2621 73.7308 -247.624 50.4354 -81.863 51.6262 2.05347e-05 0.00340473 -0.34556 174.164 179.993 179.424 173.469 179.98 179.424 174.023 179.997 179.654 2.92414 -0.00587611 -0.115037 13.9036 -1.04494 -0.998239 4.17365 -0.0672781 -0.357286 177.45 -175.101 174.873 4.56022 -20.9412 73.8544 43.3577 -29.5962 22.8566 -0 2.07941 8.36777 178.808 154.422 -177.411 166.41 -176.65 111.143 24.9813 17.5495 -6.12859 -0 -8.26915 -14.4161 146.187 -115.713 -172.587 11.6495 3.70055 0.399819 175.037 -179.964 174.975 165.759 180 -180 26.3729 13.1497 -14.9163 166.802 -174.587 -179.479 164.269 -179.986 -174.675 173.959 180 -180
 -56.3811 68.0926 -247.46 177.161 -103.24 171.477 6.72551e-05 -0.00322898 1.19322 179.023 -179.994 -178.011 178.998 -179.981 -178.011 179.273 -179.997 -178.807 179.851 -179.999 -179.602 0.506673 -0.517332 -0.0313312 0.151728 -0.844714 -0.0731158 0.574638 -2.43478 1.13149 0.114288 -0.599445 1.29211 179.967 179.191 179.854 -0 0.150623 -0.12353 0.347556 2.24701 -0.683267 0.0756858 1.14357 -0.896928 0.000731273 0.223949 0.285428 -0 0.0458017 0.130215 151.53 164.05 -171.212 169.844 -178.876 -179.592 36.6129 -7.41229 3.18514 179.981 180 -180 23.4496 -0.825163 -5.43277 159.261 -179.24 179.778 13.2054 1.40901 -9.95724 179.997 180 -180
 -51.825 71.7736 -249.084 8.11387 -84.2563 3.39565 180 179.996 -178.687 179.034 179.992 -177.812 178.974 179.977 -177.812 179.178 179.996 -178.687 0.0941106 0.000718691 0.43754 1.17819 -1.45727 -1.42989 0.356592 -0.90717 -0.492118 179.533 -178.163 179.084 179.938 179.196 179.943 179.887 -176.128 178.582 -0 -0.40763 0.136136 0.154459 1.28079 -0.301197 0.422066 -0.801528 1.49949 179.855 174.361 -178.216 -0 -0.284838 0.274718 154.44 162.521 -170.977 168.496 -179.459 -179.219 41.2481 -0.0986497 3.04595 179.988 180 -180 22.2491 -1.04653 -5.43195 159.428 -178.962 179.997 32.0104 -0.177396 -9.83752 0.00401978 0 0
 -49.144 73.2146 -250.011 7.83321 -85.0002 3.95504 180 179.995 -178.791 179.135 179.991 -177.984 178.971 179.972 -177.984 178.933 179.995 -178.791 0.855968 0.0060229 0.403117 3.22303 -2.11817 -2.75773 0.980625 -0.341883 -0.862523 179.51 -177.426 179.033 0.018457 -0.193595 0.0116329 179.951 -170.208 178.301 -0 0.156852 0.121426 1.21475 1.59491 -2.3761 1.06044 -1.71782 2.4683 179.686 169.839 -177.998 -0 -0.61678 0.670598 157.379 161.778 -171.965 166.74 -179 -179.047 40.1299 -0.027526 3.30922 179.99 180 -180 21.2559 -0.556435 -4.16918 158.428 -178.993 -179.534 41.0162 -0.227302 -9.85291 179.994 180 -180
 -47.5111 74.0964 -250.58 167.965 -95.7956 163.531 180 179.998 -178.718 179.23 179.997 -177.863 178.978 179.99 -177.863 178.73 179.998 -178.718 1.50929 0.0112557 0.427186 4.9491 -2.83635 -3.8494 1.51322 0.00286782 -1.19554 179.721 -177.209 179.449 0.0298837 -0.351257 0.563761 179.966 -166.374 178.356 -0 0.108824 0.16726 1.34992 2.34788 -2.65732 1.8511 -2.48073 3.5543 179.493 166.412 -178.085 -0 -0.929772 0.998869 160.416 160.642 -173.308 164.543 -178.598 -179.169 40.0042 0.0178576 3.5841 179.991 180 -180 19.9715 -0.0718649 -3.21649 156.939 -179.075 -179.729 40.1444 -0.030165 -9.9511 179.986 180 -180
 -45.0215 74.7033 -251.135 177.712 -99.1379 172.975 179.999 179.974 -178.58 179.284 179.948 -177.634 178.96 179.844 -177.634 178.563 179.974 -178.58 2.00204 0.0165306 0.472881 6.24008 -2.94706 -4.89995 1.92 1.32699 -1.46398 179.687 -177.593 179.384 0.0609016 -0.0816938 0.901938 179.967 -163.507 178.264 -0 0.0616158 0.195087 1.46308 1.81779 -2.86776 2.89998 -4.95382 3.1552 179.277 164.751 -178.032 -0 -1.39793 1.17305 165.17 158.955 -174.187 161.754 -178.204 -178.825 41.2174 -0.0804803 4.03528 179.992 180 -180 16.7458 0.35315 -2.08925 154.906 -178.837 -179.686 40.4069 -0.0485906 -9.90556 179.974 180 -180
 -43.9247 75.0085 -251.522 0.852258 -79.9236 -4.61027 180 179.983 -178.483 179.107 179.965 -177.472 178.816 179.897 -177.472 178.541 179.983 -178.483 1.71954 0.0151738 0.505433 5.54791 -3.0366 -5.78346 1.72922 2.12402 -1.67468 179.544 -178.526 179.109 0.0375903 0.447275 1.1453 179.976 -161.445 178.257 -0 0.0432669 0.303168 1.45464 0.761836 -2.82556 4.36118 -8.56628 1.88168 179.038 164.695 -177.969 -0 -2.09343 1.19567 172.315 156.144 -174.6 158.091 -177.857 -178.67 42.4447 -0.0616963 4.60541 179.993 180 -180 14.6689 0.808201 -1.57177 152.726 -178.241 -179.697 40.8389 -0.0179652 -9.7365 179.959 180 -180
 -44.0975 75.4473 -251.16 175.583 -101.541 170.105 0.000102972 -0.00377462 1.56266 178.761 -179.992 -177.396 178.612 -179.977 -177.396 178.726 -179.996 -178.437 0.6321 0.00574656 0.520854 2.73945 -3.11199 -6.5159 0.896227 2.22162 -1.8176 179.472 -178.94 178.972 179.997 179.108 -178.287 179.993 -159.776 178.226 -0 0.0787079 0.413062 1.06685 1.00622 -2.07612 146.072 140.943 134.251 0.0743743 35.7586 1.27908 -0 0.0272761 6.18201 179.41 153.309 -175.594 153.599 -177.235 -179.095 40.7762 -0.028459 5.34449 179.995 180 -180 15.3901 1.0949 -2.10293 150.608 -177.306 -179.804 38.4691 -0.057857 -9.63674 179.945 180 -180
 -42.2432 75.6296 -251.609 178.706 -102.463 173.417 180 179.993 -178.506 178.468 179.985 -177.509 178.413 179.956 -177.509 178.817 179.993 -178.506 179.867 -179.999 -179.502 0.834607 -3.15096 -6.67247 0.323474 1.86579 -1.83971 179.383 -179.182 178.801 179.939 178.66 -177.653 179.995 -158.754 178.282 -0 0.0497452 0.498546 1.46816 1.58698 -2.87216 150.908 139.521 131.784 0.143946 35.8543 2.18814 -0 0.00892923 6.67775 5.87376 29.1779 2.88477 148.689 -176.451 -179.299 39.6691 -0.00546441 6.11409 179.996 180 -180 15.4329 1.62965 -2.0174 148.56 -176.535 -179.791 36.1023 -0.0170822 -9.58395 179.93 180 -180
 -41.5507 75.7466 -251.467 4.90386 -78.8643 -0.415234 180 179.998 -178.426 178.217 179.995 -177.376 178.247 179.986 -177.376 178.903 179.998 -178.426 179.192 -179.993 -179.475 179.159 -176.775 173.322 179.817 178.671 178.159 179.167 -178.523 178.373 179.859 178.847 -177.117 0.0265074 -22.2946 -1.69045 -0 -0.00455882 0.630121 1.37148 1.95774 -2.69115 158.359 138.674 129.694 0.147189 34.9386 1.94982 -0 -0.237558 7.60712 11.941 31.2804 0.922742 143.351 -175.255 -179.743 36.2322 -0.0129919 6.98734 179.997 180 -180 15.4713 2.82736 -2.79757 146.008 -176.183 -179.701 32.4455 0.00586306 -9.53903 179.905 180 -180
 -39.6268 75.7201 -251.827 16.0669 -82.5386 10.7123 180 180 -178.315 177.949 179.999 -177.192 178.054 179.998 -177.192 178.946 180 -178.315 178.586 -179.986 -179.439 177.723 -176.953 173.773 179.374 179.169 178.279 178.77 -178.078 177.588 179.687 178.876 -176.537 0.0691104 -23.0541 -1.67034 -0 -0.00805783 0.734645 1.35672 1.9131 -2.66117 165.374 138.548 126.525 0.197895 34.0481 1.68657 -0 -0.173028 8.39103 22.2368 33.1064 -2.16701 138.991 -173.62 -179.872 28.2525 -0.00573788 8.01445 179.993 180 -180 12.4923 4.09177 -3.8595 142.606 -175.974 -179.827 29.8063 0.0462826 -9.40151 179.872 180 -180
 -37.5769 75.27 -251.824 18.6422 -85.8149 13.2951 180 179.999 -178.108 177.736 179.997 -176.846 177.823 179.991 -176.846 178.752 179.999 -178.108 178.635 -179.985 -179.369 178.122 -177.005 174.825 179.477 -179.956 178.505 178.359 -177.316 176.76 179.295 179.141 -175.634 0.133995 -23.8211 -1.46034 -0 -0.0457795 0.978438 1.30783 2.19609 -2.57118 171.002 138.177 123.102 0.373579 34.3367 1.4071 -0 0.273791 8.66373 30.3938 33.681 -5.69304 135.917 -172.317 179.454 20.2959 0.00491361 8.71021 179.989 180 -180 10.3759 5.06675 -4.79656 140.77 -175.74 -179.901 28.9949 0.033475 -8.98121 179.844 180 -180
 -36.9576 74.7829 -251.604 48.2984 -85.0281 42.6709 180 179.993 -177.871 177.639 179.986 -176.451 177.67 179.959 -176.451 178.524 179.993 -177.871 178.985 -179.987 -179.29 179.247 -176.963 175.569 179.805 -179.341 178.658 177.689 -176.883 175.418 178.667 179.069 -174.829 0.189222 -24.4159 -1.40666 -0 -0.11817 1.29286 1.20294 3.13068 -2.38264 175.81 137.813 120.963 0.552565 35.55 1.40651 -0 0.928518 8.66678 36.915 33.3306 -8.71481 133.803 -171.466 179.422 11.9139 0.0454551 9.11847 179.981 180 -180 8.71268 6.14787 -5.80013 139.301 -175.522 -179.699 29.4972 -0.0195234 -8.45501 179.816 180 -180
 -35.3301 74.2127 -251.721 56.3973 -86.7222 50.3035 180 179.996 -177.657 177.555 179.991 -176.094 177.549 179.973 -176.094 178.354 179.996 -177.657 179.224 -179.989 -179.219 0.0200212 -3.22983 -4.15334 0.0333468 -1.14151 -1.30654 176.762 -176.514 173.552 177.94 179.038 -174.559 0.261891 -24.9073 -1.38337 -0 -0.186384 1.60862 1.12508 3.06966 -2.22723 179.097 138.139 119.43 0.696138 36.4241 1.44953 -0 1.64793 8.7283 40.8441 32.0991 -9.98386 133.27 -170.745 179.289 7.28854 0.0142982 9.32051 179.979 180 -180 7.56288 7.64019 -6.2139 138.044 -175.763 -179.372 31.4233 -0.000350903 -7.81477 179.79 180 -180
 -32.1376 73.7415 -252.259 46.6838 -88.1055 40.4058 180 179.992 -177.484 177.591 179.985 -175.807 177.529 179.954 -175.807 178.215 179.992 -177.484 179.615 -179.994 -179.161 1.10675 -3.32166 -3.96511 0.357801 -1.30921 -1.27435 175.574 -177.481 171.23 176.403 178.24 -173.864 0.3986 -25.5066 -1.36444 -0 -0.27808 2.10342 0.891059 2.70246 -1.75857 0.210026 41.072 -62.5061 1.05044 39.2985 1.08529 -0 3.03285 8.79516 42.2851 29.9044 -10.0018 134.037 -170.109 179.257 2.00228 -0.00753703 9.39645 179.973 180 -180 6.87279 10.6474 -6.76131 138.227 -176.669 -179.452 33.4794 -0.0634402 -7.09823 179.757 180 -180
 -30.7709 73.2802 -252.673 137.849 -87.7403 131.045 179.999 179.987 -177.372 177.767 179.975 -175.62 177.6 179.924 -175.62 178.023 179.987 -177.372 0.397077 0.00607153 0.876002 3.14827 -3.82181 -4.33494 0.977858 -1.35637 -1.41166 174.752 -178.545 169.669 174.403 177.734 -172.12 0.607255 -26.6229 -1.40109 -0 -0.520939 2.83165 0.676827 2.21379 -1.33035 2.05296 40.2877 -64.3266 1.46872 44.2388 0.698891 -0 5.02371 8.64089 43.8634 26.3332 -9.98585 136.599 -169.53 179.305 177.303 179.969 -170.673 179.972 180 -180 5.44222 16.1416 -7.52833 138.375 -177.809 -179.22 37.3123 -0.0832613 -6.1772 179.721 180 -180
 -28.9663 72.9856 -252.917 145.517 -87.6948 138.509 179.999 179.98 -177.256 177.975 179.96 -175.426 177.725 179.88 -175.426 177.918 179.98 -177.256 1.0368 0.0165533 0.914593 4.76592 -4.26569 -4.42474 1.46646 -1.65362 -1.48072 173.825 179.021 168.066 172.236 176.229 -170.467 0.819755 -27.4119 -1.29677 -0 -0.72805 3.53065 0.500494 1.77855 -0.980156 2.55921 39.2725 -64.8741 1.8299 48.0847 0.192821 -0 6.70748 8.23067 45.3861 22.6013 -9.92223 139.088 -169.042 179.594 178.677 179.974 -170.783 179.978 180 -180 4.06889 20.8531 -8.24137 138.981 -178.652 -179.885 39.3049 -0.188204 -5.41236 179.688 180 -180
 -27.6025 72.7327 -253.387 173.129 -87.7465 166.148 180 179.992 -177.135 178.154 179.983 -175.225 177.884 179.95 -175.225 177.966 179.992 -177.135 1.26107 0.0210177 0.954681 5.21867 -4.63644 -4.72349 1.6081 -1.79715 -1.58951 172.92 176.426 166.615 170.344 174.586 -169.33 0.994233 -28.0717 -1.25403 -0 -0.922309 4.11588 0.274718 0.864408 -0.533787 3.20977 38.257 -65.4888 2.17864 51.8053 -0.0966423 -0 8.41781 7.81962 46.4121 19.3036 -9.39243 140.94 -169.054 179.72 2.51365 0.0125966 9.10671 179.986 180 -180 3.64564 24.7415 -8.9347 139.597 -179.214 179.778 39.9179 -0.142495 -4.62037 179.657 180 -180
 -25.4777 72.8127 -253.461 179.549 -87.0336 172.603 180 179.998 -177.12 178.304 179.997 -175.2 177.998 179.99 -175.2 177.953 179.998 -177.12 1.57338 0.0263636 0.959721 5.96764 -4.90054 -4.71694 1.83361 -2.06004 -1.6159 172.065 172.853 165.53 168.642 172.439 -168.353 1.12078 -28.7363 -1.28486 -0 -0.979845 4.64559 0.283748 -0.758307 -0.543313 3.35738 36.8461 -67.6393 2.9706 55.6604 -0.79474 -0 9.79895 7.27979 46.3903 15.5796 -9.40179 142.524 -169.547 179.61 8.38457 0.0439705 8.7254 179.997 180 -180 3.29976 27.7629 -9.04037 139.899 -179.099 179.818 39.7075 -0.0393484 -3.82882 179.625 180 -180
